<svg xmlns="http://www.w3.org/2000/svg" xmlns:xlink="http://www.w3.org/1999/xlink" xmlns:lucid="lucid" width="1662.24" height="772.67"><g transform="translate(-37.75995465362014 -113.33333333333334)" lucid:page-tab-id="0_0"><path d="M685.37 357.32A3.7 3.7 0 0 1 680 354v-68a3.7 3.7 0 0 1 5.37-3.32l69.26 34.64a3 3 0 0 1 0 5.36z" stroke="#9e66e4" stroke-width="2" fill="#bb86fc"/><use xlink:href="#a" transform="matrix(1,0,0,1,685,285) translate(13.623456790123457 39.65277777777778)"/><path d="M1020 420c0 22.1-17.9 40-40 40s-40-17.9-40-40 17.9-40 40-40 40 17.9 40 40zM1120 376a6 6 0 0 1 6-6h108a6 6 0 0 1 6 6v88a6 6 0 0 1-6 6h-108a6 6 0 0 1-6-6z" stroke="#9e66e4" stroke-width="2" fill="#bb86fc"/><use xlink:href="#b" transform="matrix(1,0,0,1,1132,382) translate(-10.789111111111112 42.44444444444444)"/><path d="M685.37 257.32A3.7 3.7 0 0 1 680 254v-68a3.7 3.7 0 0 1 5.37-3.32l69.26 34.64a3 3 0 0 1 0 5.36z" stroke="#9e66e4" stroke-width="2" fill="#bb86fc"/><use xlink:href="#c" transform="matrix(1,0,0,1,685,185) translate(14.966172839506173 39.65277777777778)"/><path d="M685.37 457.32A3.7 3.7 0 0 1 680 454v-68a3.7 3.7 0 0 1 5.37-3.32l69.26 34.64a3 3 0 0 1 0 5.36z" stroke="#9e66e4" stroke-width="2" fill="#bb86fc"/><use xlink:href="#d" transform="matrix(1,0,0,1,685,385) translate(13.623456790123457 39.65277777777778)"/><path d="M685.37 557.32A3.7 3.7 0 0 1 680 554v-68a3.7 3.7 0 0 1 5.37-3.32l69.26 34.64a3 3 0 0 1 0 5.36z" stroke="#9e66e4" stroke-width="2" fill="#bb86fc"/><use xlink:href="#e" transform="matrix(1,0,0,1,685,485) translate(18.256296296296295 38.99583333333334)"/><path d="M685.37 657.32A3.7 3.7 0 0 1 680 654v-68a3.7 3.7 0 0 1 5.37-3.32l69.26 34.64a3 3 0 0 1 0 5.36z" stroke="#9e66e4" stroke-width="2" fill="#bb86fc"/><use xlink:href="#f" transform="matrix(1,0,0,1,685,585) translate(14.055555555555555 39.65277777777778)"/><path d="M1380 181a6 6 0 0 1 6-6h228a6 6 0 0 1 6 6v78a6 6 0 0 1-6 6h-228a6 6 0 0 1-6-6z" stroke="#000" stroke-opacity="0" fill="#fff" fill-opacity="0"/><use xlink:href="#g" transform="matrix(1,0,0,1,1385,180) translate(0 20.27777777777778)"/><use xlink:href="#h" transform="matrix(1,0,0,1,1385,180) translate(0 46.94444444444444)"/><use xlink:href="#i" transform="matrix(1,0,0,1,1385,180) translate(84.93827160493828 46.94444444444444)"/><use xlink:href="#j" transform="matrix(1,0,0,1,1385,180) translate(0 73.61111111111111)"/><path d="M758.8 220h199.33a6 6 0 0 1 6 6v135.64" stroke="#03dac6" stroke-width="3" fill="none"/><path d="M758.84 221.5H757l.2-.62.1-.88-.1-.88-.2-.62h1.84z" stroke="#03dac6" stroke-width=".05" fill="#03dac6"/><path d="M964.13 377.4l-4.63-14.26h9.27z" stroke="#03dac6" stroke-width="3" fill="#03dac6"/><path d="M758.8 320H847a6 6 0 0 1 6 6v61.65a6 6 0 0 0 6 6h69.07" stroke="#03dac6" stroke-width="3" fill="none"/><path d="M758.84 321.5H757l.2-.62.1-.88-.1-.88-.2-.62h1.84z" stroke="#03dac6" stroke-width=".05" fill="#03dac6"/><path d="M943.83 393.65l-14.26 4.64V389z" stroke="#03dac6" stroke-width="3" fill="#03dac6"/><path d="M758.8 420H918.38" stroke="#03dac6" stroke-width="3" fill="none"/><path d="M758.84 421.5H757l.2-.62.1-.88-.1-.88-.2-.62h1.84z" stroke="#03dac6" stroke-width=".05" fill="#03dac6"/><path d="M934.14 420l-14.26 4.63v-9.26z" stroke="#03dac6" stroke-width="3" fill="#03dac6"/><path d="M758.8 520h87.88a6 6 0 0 0 6-6v-62.34a6 6 0 0 1 6-6h68.77" stroke="#03dac6" stroke-width="3" fill="none"/><path d="M758.84 521.5H757l.2-.62.1-.88-.1-.88-.2-.62h1.84z" stroke="#03dac6" stroke-width=".05" fill="#03dac6"/><path d="M943.22 445.66l-14.27 4.64v-9.27z" stroke="#03dac6" stroke-width="3" fill="#03dac6"/><path d="M758.8 620h197.6a6 6 0 0 0 6-6V477.58" stroke="#03dac6" stroke-width="3" fill="none"/><path d="M758.84 621.5H757l.2-.62.1-.88-.1-.88-.2-.62h1.84z" stroke="#03dac6" stroke-width=".05" fill="#03dac6"/><path d="M962.4 461.8l4.64 14.28h-9.27z" stroke="#03dac6" stroke-width="3" fill="#03dac6"/><path d="M1022.5 420h75.88" stroke="#03dac6" stroke-width="3" fill="none"/><path d="M1022.54 421.5h-1.63l.1-1.5-.05-1.5h1.6z" stroke="#03dac6" stroke-width=".05" fill="#03dac6"/><path d="M1114.15 420l-14.27 4.63v-9.26z" stroke="#03dac6" stroke-width="3" fill="#03dac6"/><path d="M1320 376a6 6 0 0 1 6-6h128a6 6 0 0 1 6 6v88a6 6 0 0 1-6 6h-128a6 6 0 0 1-6-6z" stroke="#9e66e4" stroke-width="2" fill="#bb86fc"/><path d="M1242.5 420h55.88" stroke="#03dac6" stroke-width="3" fill="none"/><path d="M1242.54 421.5H1241v-3h1.54z" stroke="#03dac6" stroke-width=".05" fill="#03dac6"/><path d="M1314.15 420l-14.27 4.63v-9.26z" stroke="#03dac6" stroke-width="3" fill="#03dac6"/><path d="M353.5 420c0 16.94-13.43 30.67-30 30.67s-30-13.73-30-30.67 13.43-30.67 30-30.67 30 13.73 30 30.67zM480 391a6 6 0 0 1 6-6h108a6 6 0 0 1 6 6v58a6 6 0 0 1-6 6H486a6 6 0 0 1-6-6z" stroke="#9e66e4" stroke-width="2" fill="#bb86fc"/><use xlink:href="#k" transform="matrix(1,0,0,1,492,397) translate(-10.422197530864196 27.444444444444443)"/><path d="M400 515c0 16.94-13.43 30.67-30 30.67s-30-13.73-30-30.67 13.43-30.67 30-30.67 30 13.73 30 30.67zM480 486a6 6 0 0 1 6-6h108a6 6 0 0 1 6 6v58a6 6 0 0 1-6 6H486a6 6 0 0 1-6-6z" stroke="#9e66e4" stroke-width="2" fill="#bb86fc"/><use xlink:href="#l" transform="matrix(1,0,0,1,492,492) translate(-9.083185185185187 27.444444444444443)"/><path d="M480 596a6 6 0 0 1 6-6h108a6 6 0 0 1 6 6v58a6 6 0 0 1-6 6H486a6 6 0 0 1-6-6z" stroke="#9e66e4" stroke-width="2" fill="#bb86fc"/><use xlink:href="#m" transform="matrix(1,0,0,1,492,602) translate(-10.360814814814816 27.444444444444443)"/><path d="M460 620c0 16.94-13.43 30.67-30 30.67s-30-13.73-30-30.67 13.43-30.67 30-30.67 30 13.73 30 30.67z" stroke="#9e66e4" stroke-width="2" fill="#bb86fc"/><path d="M975.17 138.6l1.15.26 1.1.45 1 .63.9.76.75.9.62 1 .44 1.08.27 1.15.1 1.1V358.4h-3V146.06l-.06-.76-.17-.7-.26-.64-.36-.6-.46-.54-.54-.46-.6-.37-.65-.28-.7-.16-.76-.06H185.62v-3h788.44z" stroke="#03dac6" stroke-width=".05" fill="#03dac6"/><path stroke="#03dac6" stroke-width=".05" fill="#03dac6"/><path d="M980 374.14l-4.63-14.26h9.26z" fill="#03dac6"/><path d="M980 379l-6.7-20.62h13.4zm-2.57-17.62l2.57 7.9 2.57-7.9z" stroke="#03dac6" stroke-width=".05" fill="#03dac6"/><use xlink:href="#n" transform="matrix(1,0,0,1,62.359644610672994,129.33333333333334) translate(0 14.222222222222223)"/><path d="M356 420h102.38" stroke="#03dac6" stroke-width="3" fill="none"/><path d="M356.04 421.5h-1.66l.12-1.5-.08-1.5h1.62z" stroke="#03dac6" stroke-width=".05" fill="#03dac6"/><path d="M474.14 420l-14.26 4.63v-9.26z" stroke="#03dac6" stroke-width="3" fill="#03dac6"/><path d="M602.5 420h55.88" stroke="#03dac6" stroke-width="3" fill="none"/><path d="M602.54 421.5H601v-3h1.54z" stroke="#03dac6" stroke-width=".05" fill="#03dac6"/><path d="M674.15 420l-14.27 4.63v-9.26z" stroke="#03dac6" stroke-width="3" fill="#03dac6"/><path d="M271.88 421.5H185.8v-3h86.08z" stroke="#03dac6" stroke-width=".05" fill="#03dac6"/><path d="M287.64 420l-14.26 4.63v-9.26z" fill="#03dac6"/><path d="M292.5 420l-20.62 6.7v-13.4zm-17.62 2.57l7.9-2.57-7.9-2.57z" stroke="#03dac6" stroke-width=".05" fill="#03dac6"/><path stroke="#03dac6" stroke-width=".05" fill="#03dac6"/><use xlink:href="#o" transform="matrix(1,0,0,1,58.58896488178947,409.3333332150804) translate(0 14.222222222222223)"/><path d="M378.38 621.5H213.9v-3H378.4z" stroke="#03dac6" stroke-width=".05" fill="#03dac6"/><path d="M394.14 620l-14.26 4.63v-9.26z" fill="#03dac6"/><path d="M399 620l-20.62 6.7v-13.4zm-17.62 2.57l7.9-2.57-7.9-2.57z" stroke="#03dac6" stroke-width=".05" fill="#03dac6"/><path stroke="#03dac6" stroke-width=".05" fill="#03dac6"/><use xlink:href="#p" transform="matrix(1,0,0,1,60.97364713240785,609.3333333333334) translate(0 14.222222222222223)"/><path d="M462.5 620H461" stroke="#03dac6" stroke-width="3" fill="none"/><path d="M462.54 621.5h-1.66l.12-1.5-.08-1.5h1.62z" stroke="#03dac6" stroke-width=".05" fill="#03dac6"/><path d="M474.15 619.97l-14.26 4.67-.03-9.27z" stroke="#03dac6" stroke-width="3" fill="#03dac6"/><path d="M402.5 515H458.38" stroke="#03dac6" stroke-width="3" fill="none"/><path d="M402.54 516.5h-1.66l.12-1.5-.08-1.5h1.62z" stroke="#03dac6" stroke-width=".05" fill="#03dac6"/><path d="M474.14 515l-14.26 4.63v-9.26z" stroke="#03dac6" stroke-width="3" fill="#03dac6"/><path d="M602.5 515h37.47a.03.03 0 0 0 .03-.03.03.03 0 0 1 .03-.03h18.35" stroke="#03dac6" stroke-width="3" fill="none"/><path d="M602.54 516.5H601v-3h1.54z" stroke="#03dac6" stroke-width=".05" fill="#03dac6"/><path d="M674.15 514.94l-14.27 4.63v-9.27z" stroke="#03dac6" stroke-width="3" fill="#03dac6"/><path d="M602.5 625h37.47a.03.03 0 0 1 .03.03.03.03 0 0 0 .03.03h18.35" stroke="#03dac6" stroke-width="3" fill="none"/><path d="M602.54 626.5H601v-3h1.54z" stroke="#03dac6" stroke-width=".05" fill="#03dac6"/><path d="M674.15 625.06l-14.27 4.64v-9.27z" stroke="#03dac6" stroke-width="3" fill="#03dac6"/><path d="M240 515c0 5.52-4.48 10-10 10s-10-4.48-10-10 4.48-10 10-10 10 4.48 10 10z" stroke="#9e66e4" stroke-width="2" fill="#bb86fc"/><path d="M242.5 515h75.88" stroke="#03dac6" stroke-width="3" fill="none"/><path d="M242.55 516.5h-1.78l.24-1.5-.2-1.5h1.75z" stroke="#03dac6" stroke-width=".05" fill="#03dac6"/><path d="M334.14 515l-14.26 4.64v-9.27z" stroke="#03dac6" stroke-width="3" fill="#03dac6"/><path d="M198.37 516.5h-26.24v-3h26.24z" stroke="#03dac6" stroke-width=".05" fill="#03dac6"/><path d="M214.14 515l-14.27 4.63v-9.26z" fill="#03dac6"/><path d="M219 515l-20.63 6.7v-13.4zm-17.63 2.57l7.9-2.57-7.9-2.57z" stroke="#03dac6" stroke-width=".05" fill="#03dac6"/><path stroke="#03dac6" stroke-width=".05" fill="#03dac6"/><use xlink:href="#q" transform="matrix(1,0,0,1,53.75995465362014,504.3333333333333) translate(0 14.222222222222223)"/><path d="M320 320c0 16.94-13.43 30.67-30 30.67s-30-13.73-30-30.67 13.43-30.67 30-30.67 30 13.73 30 30.67z" stroke="#9e66e4" stroke-width="2" fill="#bb86fc"/><path d="M322.5 320h335.88" stroke="#03dac6" stroke-width="3" fill="none"/><path d="M322.54 321.5h-1.66l.12-1.5-.08-1.5h1.62z" stroke="#03dac6" stroke-width=".05" fill="#03dac6"/><path d="M674.15 320l-14.27 4.63v-9.26z" stroke="#03dac6" stroke-width="3" fill="#03dac6"/><path d="M238.38 321.5h-50.86v-3h50.86z" stroke="#03dac6" stroke-width=".05" fill="#03dac6"/><path d="M254.15 320l-14.27 4.63v-9.26z" fill="#03dac6"/><path d="M259 320l-20.62 6.7v-13.4zm-17.62 2.57l7.9-2.57-7.9-2.57z" stroke="#03dac6" stroke-width=".05" fill="#03dac6"/><path stroke="#03dac6" stroke-width=".05" fill="#03dac6"/><use xlink:href="#r" transform="matrix(1,0,0,1,58.33521096818032,309.3333333160012) translate(0 14.222222222222223)"/><path d="M658.38 220H236a6 6 0 0 0-6 6v276.5" stroke="#03dac6" stroke-width="3" fill="none"/><path d="M674.15 220l-14.27 4.63v-9.26z" stroke="#03dac6" stroke-width="3" fill="#03dac6"/><path d="M231.5 504.2l-1.5-.2-1.5.2v-1.75h3z" stroke="#03dac6" stroke-width=".05" fill="#03dac6"/><path d="M1359.5 451h24.5a6 6 0 0 0 6-6v-39a6 6 0 0 1 6-6h24M1359.54 451H1358M1419.96 400h1.54" stroke="#03dac6" stroke-width="3" fill="none"/><path d="M1520 370.33a6 6 0 0 1 6-6h148a6 6 0 0 1 6 6v108a6 6 0 0 1-6 6h-148a6 6 0 0 1-6-6z" stroke="#9e66e4" stroke-width="2" fill="#bb86fc"/><use xlink:href="#s" transform="matrix(1,0,0,1,1532,376.33333333333337) translate(30.99382716049383 53.77777777777778)"/><path d="M1462.5 420h27.5v-.03h8.38" stroke="#03dac6" stroke-width="3" fill="none"/><path d="M1462.54 421.5H1461v-3h1.54z" stroke="#03dac6" stroke-width=".05" fill="#03dac6"/><path d="M1514.15 419.97l-14.27 4.64v-9.26z" stroke="#03dac6" stroke-width="3" fill="#03dac6"/><path d="M777.5 780h-448a6 6 0 0 1-6-6V472.3" stroke="#03dac6" stroke-width="3" fill="none"/><path d="M779 781.5h-1.54v-3H779z" stroke="#03dac6" stroke-width=".05" fill="#03dac6"/><path d="M323.5 456.52l4.63 14.27h-9.26z" stroke="#03dac6" stroke-width="3" fill="#03dac6"/><path d="M1203.66 851.5h-122.03v-3h122.03zm442.2-183.78l-.28.86-.07.05v175.43l-.1 1.1-.26 1.16-.45 1.1-.63 1-.76.9-.9.75-1 .62-1.08.44-1.15.27-1.1.1h-236.04v-3h235.9l.77-.06.7-.17.64-.26.6-.36.54-.46.46-.54.37-.6.28-.65.16-.7.06-.76v-176.7l.36-.42v-180h3z" stroke="#03dac6" stroke-width=".05" fill="#03dac6"/><path d="M1645.86 486.87h-3v-1.54h3z" fill="#03dac6"/><path d="M1645.9 486.9h-3.06v-1.6h3.05zm-3-1.54v1.5h2.94v-1.5z" stroke="#03dac6" stroke-width=".05" fill="#03dac6"/><path d="M1080.13 854.63l-14.27-4.63 14.27-4.63z" fill="#03dac6"/><path d="M1081.63 856.7L1061 850l20.63-6.7zm-10.9-6.7l7.9 2.57v-5.14z" stroke="#03dac6" stroke-width=".05" fill="#03dac6"/><use xlink:href="#t" transform="matrix(1,0,0,1,1203.6556665322237,839.3333333333334) translate(0 14.222222222222223)"/><path d="M780 746a6 6 0 0 1 6-6h88a6 6 0 0 1 6 6v68a6 6 0 0 1-6 6h-88a6 6 0 0 1-6-6z" stroke="#9e66e4" stroke-width="2" fill="#bb86fc"/><use xlink:href="#u" transform="matrix(1,0,0,1,792,752) translate(-1.4845679012345698 32.44444444444444)"/><path d="M1060 850c0 5.52-4.48 10-10 10s-10-4.48-10-10 4.48-10 10-10 10 4.48 10 10z" stroke="#9e66e4" stroke-width="2" fill="#bb86fc"/><path d="M1050 837.5V786a6 6 0 0 0-6-6H901.62" stroke="#03dac6" stroke-width="3" fill="none"/><path d="M1051.5 839.2l-1.5-.2-1.5.2v-1.75h3z" stroke="#03dac6" stroke-width=".05" fill="#03dac6"/><path d="M885.85 780l14.27-4.63v9.26z" stroke="#03dac6" stroke-width="3" fill="#03dac6"/><path d="M1037.5 850H296a6 6 0 0 1-6-6V372.3" stroke="#03dac6" stroke-width="3" fill="none"/><path d="M1039 850l.23 1.5h-1.78v-3h1.74z" stroke="#03dac6" stroke-width=".05" fill="#03dac6"/><path d="M290 356.52l4.63 14.27h-9.26z" stroke="#03dac6" stroke-width="3" fill="#03dac6"/><path d="M1180 730c0 5.52-4.48 10-10 10s-10-4.48-10-10 4.48-10 10-10 10 4.48 10 10z" stroke="#9e66e4" stroke-width="2" fill="#bb86fc"/><path d="M1279.02 731.5h-77.4v-3h77.4zm286.7-7.44l-.1 1.1-.28 1.16-.45 1.1-.62 1-.77.9-.88.75-1 .62-1.1.44-1.14.27-1.1.1h-74.12v-3h74l.75-.06.7-.17.65-.26.6-.36.54-.46.44-.54.37-.6.28-.65.17-.7.06-.76v-237.1h3z" stroke="#03dac6" stroke-width=".05" fill="#03dac6"/><path d="M1565.7 486.87h-3v-1.54h3z" fill="#03dac6"/><path d="M1565.73 486.9h-3.05v-1.6h3.05zm-3-1.54v1.5h2.95v-1.5z" stroke="#03dac6" stroke-width=".05" fill="#03dac6"/><path d="M1200.13 734.63l-14.27-4.63 14.27-4.63z" fill="#03dac6"/><path d="M1201.63 736.7L1181 730l20.63-6.7zm-10.9-6.7l7.9 2.57v-5.14z" stroke="#03dac6" stroke-width=".05" fill="#03dac6"/><use xlink:href="#v" transform="matrix(1,0,0,1,1279.0218130605247,719.3333333333334) translate(0 14.222222222222223)"/><path d="M1157.5 730H376a6 6 0 0 1-6-6V567.3" stroke="#03dac6" stroke-width="3" fill="none"/><path d="M1159 730l.23 1.5h-1.78v-3h1.74z" stroke="#03dac6" stroke-width=".05" fill="#03dac6"/><path d="M370 551.52l4.63 14.27h-9.26z" stroke="#03dac6" stroke-width="3" fill="#03dac6"/><path d="M1020 646a6 6 0 0 1 6-6h88a6 6 0 0 1 6 6v68a6 6 0 0 1-6 6h-88a6 6 0 0 1-6-6z" stroke="#9e66e4" stroke-width="2" fill="#bb86fc"/><use xlink:href="#u" transform="matrix(1,0,0,1,1032,652) translate(-1.4845679012345698 32.44444444444444)"/><path d="M1170 717.5V686a6 6 0 0 0-6-6h-22.38" stroke="#03dac6" stroke-width="3" fill="none"/><path d="M1171.5 719.2l-1.5-.2-1.5.2v-1.75h3z" stroke="#03dac6" stroke-width=".05" fill="#03dac6"/><path d="M1125.85 680l14.27-4.63v9.26z" stroke="#03dac6" stroke-width="3" fill="#03dac6"/><path d="M1017.5 680H436a6 6 0 0 1-6-6v-1.7" stroke="#03dac6" stroke-width="3" fill="none"/><path d="M1019 681.5h-1.54v-3h1.54z" stroke="#03dac6" stroke-width=".05" fill="#03dac6"/><path d="M430 656.52l4.63 14.27h-9.26z" stroke="#03dac6" stroke-width="3" fill="#03dac6"/><path d="M1330 376a6 6 0 0 1 6-6h108a6 6 0 0 1 6 6v18a6 6 0 0 1-6 6h-108a6 6 0 0 1-6-6z" stroke="#000" stroke-opacity="0" fill="#fff" fill-opacity="0"/><use xlink:href="#w" transform="matrix(1,0,0,1,1335,375) translate(-5.666666666666664 14.222222222222221)"/><path d="M961.5 439.67a6 6 0 0 1 6-6h8a6 6 0 0 1 6 6v18.66a6 6 0 0 1-6 6h-8a6 6 0 0 1-6-6z" stroke="#000" stroke-opacity="0" fill="#fff" fill-opacity="0"/><use xlink:href="#x" transform="matrix(1,0,0,1,966.5,438.6666666666667) translate(-1.481481481481481 17.77777777777778)"/><path d="M941 409.17a6 6 0 0 1 6-6h8a6 6 0 0 1 6 6v18.66a6 6 0 0 1-6 6h-8a6 6 0 0 1-6-6z" stroke="#000" stroke-opacity="0" fill="#fff" fill-opacity="0"/><use xlink:href="#x" transform="matrix(1,0,0,1,946,408.1666666666667) translate(-1.481481481481481 17.77777777777778)"/><path d="M970 381a6 6 0 0 1 6-6h8a6 6 0 0 1 6 6v18.67a6 6 0 0 1-6 6h-8a6 6 0 0 1-6-6z" stroke="#000" stroke-opacity="0" fill="#fff" fill-opacity="0"/><use xlink:href="#x" transform="matrix(1,0,0,1,975,380) translate(-1.481481481481481 17.77777777777778)"/><path d="M955.5 386a6 6 0 0 1 6-6h8a6 6 0 0 1 6 6v18.67a6 6 0 0 1-6 6h-8a6 6 0 0 1-6-6z" stroke="#000" stroke-opacity="0" fill="#fff" fill-opacity="0"/><use xlink:href="#x" transform="matrix(1,0,0,1,960.5,385) translate(-1.481481481481481 17.77777777777778)"/><path d="M946 392.67a6 6 0 0 1 6-6h8a6 6 0 0 1 6 6v18.66a6 6 0 0 1-6 6h-8a6 6 0 0 1-6-6z" stroke="#000" stroke-opacity="0" fill="#fff" fill-opacity="0"/><use xlink:href="#x" transform="matrix(1,0,0,1,951,391.6666666666667) translate(-1.481481481481481 17.77777777777778)"/><path d="M946.5 430.67a6 6 0 0 1 6-6h8a6 6 0 0 1 6 6v18.66a6 6 0 0 1-6 6h-8a6 6 0 0 1-6-6z" stroke="#000" stroke-opacity="0" fill="#fff" fill-opacity="0"/><use xlink:href="#x" transform="matrix(1,0,0,1,951.5,429.6666666666667) translate(-1.481481481481481 17.77777777777778)"/><path d="M342 506.5a6 6 0 0 1 6-6h8a6 6 0 0 1 6 6v18.67a6 6 0 0 1-6 6h-8a6 6 0 0 1-6-6z" stroke="#000" stroke-opacity="0" fill="#fff" fill-opacity="0"/><use xlink:href="#x" transform="matrix(1,0,0,1,347,505.5) translate(-1.481481481481481 17.77777777777778)"/><path d="M398.5 611a6 6 0 0 1 6-6h8a6 6 0 0 1 6 6v18.67a6 6 0 0 1-6 6h-8a6 6 0 0 1-6-6z" stroke="#000" stroke-opacity="0" fill="#fff" fill-opacity="0"/><use xlink:href="#x" transform="matrix(1,0,0,1,403.5,610) translate(-1.481481481481481 17.77777777777778)"/><path d="M295.5 411a6 6 0 0 1 6-6h8a6 6 0 0 1 6 6v18.67a6 6 0 0 1-6 6h-8a6 6 0 0 1-6-6z" stroke="#000" stroke-opacity="0" fill="#fff" fill-opacity="0"/><use xlink:href="#x" transform="matrix(1,0,0,1,300.5,410) translate(-1.481481481481481 17.77777777777778)"/><path d="M260.5 310.5a6 6 0 0 1 6-6h8a6 6 0 0 1 6 6v18.67a6 6 0 0 1-6 6h-8a6 6 0 0 1-6-6z" stroke="#000" stroke-opacity="0" fill="#fff" fill-opacity="0"/><use xlink:href="#x" transform="matrix(1,0,0,1,265.5,309.5) translate(-1.481481481481481 17.77777777777778)"/><path d="M280 326a6 6 0 0 1 6-6h8a6 6 0 0 1 6 6v18.67a6 6 0 0 1-6 6h-8a6 6 0 0 1-6-6z" stroke="#000" stroke-opacity="0" fill="#fff" fill-opacity="0"/><use xlink:href="#y" transform="matrix(1,0,0,1,285,325) translate(1.3271604938271606 19.09027777777778)"/><path d="M311 431a6 6 0 0 1 6-6h8a6 6 0 0 1 6 6v18.67a6 6 0 0 1-6 6h-8a6 6 0 0 1-6-6z" stroke="#000" stroke-opacity="0" fill="#fff" fill-opacity="0"/><use xlink:href="#y" transform="matrix(1,0,0,1,316,430) translate(1.3271604938271606 19.09027777777778)"/><path d="M363 525a6 6 0 0 1 6-6h8a6 6 0 0 1 6 6v18.67a6 6 0 0 1-6 6h-8a6 6 0 0 1-6-6z" stroke="#000" stroke-opacity="0" fill="#fff" fill-opacity="0"/><use xlink:href="#y" transform="matrix(1,0,0,1,368,524) translate(1.3271604938271606 19.09027777777778)"/><path d="M420 628.5a6 6 0 0 1 6-6h8a6 6 0 0 1 6 6v18.67a6 6 0 0 1-6 6h-8a6 6 0 0 1-6-6z" stroke="#000" stroke-opacity="0" fill="#fff" fill-opacity="0"/><g><use xlink:href="#y" transform="matrix(1,0,0,1,425,627.5) translate(1.3271604938271606 19.09027777777778)"/></g><defs><path fill="#fff7a1" d="M143 0L79-87 56-68V0H24v-261h32v163l83-92h37l-77 82L181 0h-38" id="z"/><path fill="#fff7a1" d="M115-194c55 1 70 41 70 98S169 2 115 4C84 4 66-9 55-30l1 105H24l-1-265h31l2 30c10-21 28-34 59-34zm-8 174c40 0 45-34 45-75s-6-73-45-74c-42 0-51 32-51 76 0 43 10 73 51 73" id="A"/><g id="a"><use transform="matrix(0.06172839506172839,0,0,0.06172839506172839,0,0)" xlink:href="#z"/><use transform="matrix(0.043209876543209874,0,0,0.043209876543209874,11.11111111111111,3.1111111111111107)" xlink:href="#A"/></g><path fill="#fff" d="M27 0v-27h64v-190l-56 39v-29l58-41h29v221h61V0H27" id="B"/><path fill="#fff" d="M0 4l72-265h28L28 4H0" id="C"/><path fill="#fff" d="M87 75C49 33 22-17 22-94c0-76 28-126 65-167h31c-38 41-64 92-64 168S80 34 118 75H87" id="D"/><path fill="#fff" d="M135-143c-3-34-86-38-87 0 15 53 115 12 119 90S17 21 10-45l28-5c4 36 97 45 98 0-10-56-113-15-118-90-4-57 82-63 122-42 12 7 21 19 24 35" id="E"/><path fill="#fff" d="M101-251c82-7 93 87 43 132L82-64C71-53 59-42 53-27h129V0H18c2-99 128-94 128-182 0-28-16-43-45-43s-46 15-49 41l-32-3c6-41 34-60 81-64" id="F"/><path fill="#fff" d="M16 0c22-49 41-106 52-167-18-1-33 2-46 6 0-21 11-29 38-29h187l-5 23h-41L176-36c-2 18 17 16 30 12l-3 24c-36 12-65-4-57-48l23-119H99C85-110 72-48 49 0H16" id="G"/><path fill="#b8f5ed" d="M76-167L44 0H12l33-167H18l4-23h27c3-47 25-81 82-69l-4 24c-35-8-44 15-46 45h37l-5 23H76" id="H"/><path fill="#b8f5ed" d="M30-147c31-64 166-65 159 27C183-49 158 1 86 4 9 8 1-88 30-147zM88-20c53 0 68-48 68-100 0-31-11-51-44-50-52 1-68 46-68 97 0 32 13 53 44 53" id="I"/><path fill="#fff" d="M118-107v75H92v-75H18v-26h74v-75h26v75h74v26h-74" id="J"/><path fill="#fff" d="M33-261c38 41 65 92 65 168S71 34 33 75H2C39 34 66-17 66-93S39-220 2-261h31" id="K"/><g id="b"><use transform="matrix(0.06172839506172839,0,0,0.06172839506172839,0,0)" xlink:href="#B"/><use transform="matrix(0.06172839506172839,0,0,0.06172839506172839,12.345679012345679,0)" xlink:href="#C"/><use transform="matrix(0.06172839506172839,0,0,0.06172839506172839,18.51851851851852,0)" xlink:href="#D"/><use transform="matrix(0.06172839506172839,0,0,0.06172839506172839,25.864197530864196,0)" xlink:href="#E"/><use transform="matrix(0.06172839506172839,0,0,0.06172839506172839,36.9753086419753,0)" xlink:href="#C"/><use transform="matrix(0.06172839506172839,0,0,0.06172839506172839,43.148148148148145,0)" xlink:href="#F"/><use transform="matrix(0.06118518518518519,0,0,0.06118518518518519,55.49382716049382,0)" xlink:href="#G"/><use transform="matrix(0.06118518518518519,0,0,0.06118518518518519,70.23945679012346,0)" xlink:href="#H"/><use transform="matrix(0.04282962962962963,0,0,0.04282962962962963,76.35797530864197,3.083733333333333)" xlink:href="#I"/><use transform="matrix(0.06172839506172839,0,0,0.06172839506172839,84.9239012345679,0)" xlink:href="#J"/><use transform="matrix(0.06172839506172839,0,0,0.06172839506172839,97.88686419753085,0)" xlink:href="#B"/><use transform="matrix(0.06172839506172839,0,0,0.06172839506172839,110.23254320987654,0)" xlink:href="#K"/></g><path fill="#b8f5ed" d="M101-234c-31-9-42 10-38 44h38v23H63V0H32v-167H5v-23h27c-7-52 17-82 69-68v24" id="L"/><path fill="#b8f5ed" d="M117 0C83 9 54 0 54-40v-127c-19-1-36 2-49 6v-24c35-10 90-3 134-5v23H86v120c-3 22 10 31 31 24V0" id="M"/><g id="c"><use transform="matrix(0.06172839506172839,0,0,0.06172839506172839,0,0)" xlink:href="#L"/><use transform="matrix(0.06172839506172839,0,0,0.06172839506172839,5.7407407407407405,0)" xlink:href="#L"/><use transform="matrix(0.0362962962962963,0,0,0.0362962962962963,11.913580246913579,2.6133333333333333)" xlink:href="#M"/></g><path fill="#fff7a1" d="M85-194c31 0 48 13 60 33l-1-100h32l1 261h-30c-2-10 0-23-3-31C134-8 116 4 85 4 32 4 16-35 15-94c0-66 23-100 70-100zm9 24c-40 0-46 34-46 75 0 40 6 74 45 74 42 0 51-32 51-76 0-42-9-74-50-73" id="N"/><g id="d"><use transform="matrix(0.06172839506172839,0,0,0.06172839506172839,0,0)" xlink:href="#z"/><use transform="matrix(0.043209876543209874,0,0,0.043209876543209874,11.11111111111111,3.1111111111111107)" xlink:href="#N"/></g><path fill="#fff7a1" d="M117 0C83 9 54 0 54-40v-127c-19-1-36 2-49 6v-24c35-10 90-3 134-5v23H86v120c-3 22 10 31 31 24V0" id="O"/><g id="e"><use transform="matrix(0.05185185185185186,0,0,0.05185185185185186,0,0)" xlink:href="#z"/><use transform="matrix(0.0362962962962963,0,0,0.0362962962962963,9.333333333333336,2.6133333333333333)" xlink:href="#O"/></g><path fill="#fff7a1" d="M135-143c-3-34-86-38-87 0 15 53 115 12 119 90S17 21 10-45l28-5c4 36 97 45 98 0-10-56-113-15-118-90-4-57 82-63 122-42 12 7 21 19 24 35" id="P"/><g id="f"><use transform="matrix(0.06172839506172839,0,0,0.06172839506172839,0,0)" xlink:href="#z"/><use transform="matrix(0.043209876543209874,0,0,0.043209876543209874,11.11111111111111,3.1111111111111107)" xlink:href="#P"/></g><path fill="#fff" d="M30 0v-248h33v221h125V0H30" id="Q"/><path fill="#fff" d="M100-194c63 0 86 42 84 106H49c0 40 14 67 53 68 26 1 43-12 49-29l28 8c-11 28-37 45-77 45C44 4 14-33 15-96c1-61 26-98 85-98zm52 81c6-60-76-77-97-28-3 7-6 17-6 28h103" id="R"/><path fill="#fff" d="M177-190C167-65 218 103 67 71c-23-6-38-20-44-43l32-5c15 47 100 32 89-28v-30C133-14 115 1 83 1 29 1 15-40 15-95c0-56 16-97 71-98 29-1 48 16 59 35 1-10 0-23 2-32h30zM94-22c36 0 50-32 50-73 0-42-14-75-50-75-39 0-46 34-46 75s6 73 46 73" id="S"/><path fill="#fff" d="M117-194c89-4 53 116 60 194h-32v-121c0-31-8-49-39-48C34-167 62-67 57 0H25l-1-190h30c1 10-1 24 2 32 11-22 29-35 61-36" id="T"/><path fill="#fff" d="M85-194c31 0 48 13 60 33l-1-100h32l1 261h-30c-2-10 0-23-3-31C134-8 116 4 85 4 32 4 16-35 15-94c0-66 23-100 70-100zm9 24c-40 0-46 34-46 75 0 40 6 74 45 74 42 0 51-32 51-76 0-42-9-74-50-73" id="U"/><path fill="#fff" d="M33-154v-36h34v36H33zM33 0v-36h34V0H33" id="V"/><g id="g"><use transform="matrix(0.06172839506172839,0,0,0.06172839506172839,0,0)" xlink:href="#Q"/><use transform="matrix(0.06172839506172839,0,0,0.06172839506172839,12.345679012345679,0)" xlink:href="#R"/><use transform="matrix(0.06172839506172839,0,0,0.06172839506172839,24.691358024691358,0)" xlink:href="#S"/><use transform="matrix(0.06172839506172839,0,0,0.06172839506172839,37.03703703703704,0)" xlink:href="#R"/><use transform="matrix(0.06172839506172839,0,0,0.06172839506172839,49.382716049382715,0)" xlink:href="#T"/><use transform="matrix(0.06172839506172839,0,0,0.06172839506172839,61.72839506172839,0)" xlink:href="#U"/><use transform="matrix(0.06172839506172839,0,0,0.06172839506172839,74.07407407407408,0)" xlink:href="#V"/></g><path fill="#fff7a1" d="M114-163C36-179 61-72 57 0H25l-1-190h30c1 12-1 29 2 39 6-27 23-49 58-41v29" id="W"/><path fill="#fff7a1" d="M100-194c63 0 86 42 84 106H49c0 40 14 67 53 68 26 1 43-12 49-29l28 8c-11 28-37 45-77 45C44 4 14-33 15-96c1-61 26-98 85-98zm52 81c6-60-76-77-97-28-3 7-6 17-6 28h103" id="X"/><path fill="#fff7a1" d="M141-36C126-15 110 5 73 4 37 3 15-17 15-53c-1-64 63-63 125-63 3-35-9-54-41-54-24 1-41 7-42 31l-33-3c5-37 33-52 76-52 45 0 72 20 72 64v82c-1 20 7 32 28 27v20c-31 9-61-2-59-35zM48-53c0 20 12 33 32 33 41-3 63-29 60-74-43 2-92-5-92 41" id="Y"/><path fill="#fff7a1" d="M24 0v-261h32V0H24" id="Z"/><path fill="#fff7a1" d="M59-47c-2 24 18 29 38 22v24C64 9 27 4 27-40v-127H5v-23h24l9-43h21v43h35v23H59v120" id="aa"/><path fill="#fff7a1" d="M24-231v-30h32v30H24zM24 0v-190h32V0H24" id="ab"/><path fill="#fff7a1" d="M210-169c-67 3-38 105-44 169h-31v-121c0-29-5-50-35-48C34-165 62-65 56 0H25l-1-190h30c1 10-1 24 2 32 10-44 99-50 107 0 11-21 27-35 58-36 85-2 47 119 55 194h-31v-121c0-29-5-49-35-48" id="ac"/><g id="h"><use transform="matrix(0.06172839506172839,0,0,0.06172839506172839,0,0)" xlink:href="#W"/><use transform="matrix(0.06172839506172839,0,0,0.06172839506172839,7.345679012345679,0)" xlink:href="#X"/><use transform="matrix(0.06172839506172839,0,0,0.06172839506172839,19.691358024691358,0)" xlink:href="#Y"/><use transform="matrix(0.06172839506172839,0,0,0.06172839506172839,32.03703703703704,0)" xlink:href="#Z"/><use transform="matrix(0.06172839506172839,0,0,0.06172839506172839,36.91358024691358,0)" xlink:href="#aa"/><use transform="matrix(0.06172839506172839,0,0,0.06172839506172839,43.086419753086425,0)" xlink:href="#ab"/><use transform="matrix(0.06172839506172839,0,0,0.06172839506172839,47.96296296296297,0)" xlink:href="#ac"/><use transform="matrix(0.06172839506172839,0,0,0.06172839506172839,66.41975308641976,0)" xlink:href="#X"/></g><path fill="#fff7a1" d="M96-169c-40 0-48 33-48 73s9 75 48 75c24 0 41-14 43-38l32 2c-6 37-31 61-74 61-59 0-76-41-82-99-10-93 101-131 147-64 4 7 5 14 7 22l-32 3c-4-21-16-35-41-35" id="ad"/><path fill="#fff7a1" d="M100-194c62-1 85 37 85 99 1 63-27 99-86 99S16-35 15-95c0-66 28-99 85-99zM99-20c44 1 53-31 53-75 0-43-8-75-51-75s-53 32-53 75 10 74 51 75" id="ae"/><path fill="#fff7a1" d="M117-194c89-4 53 116 60 194h-32v-121c0-31-8-49-39-48C34-167 62-67 57 0H25l-1-190h30c1 10-1 24 2 32 11-22 29-35 61-36" id="af"/><g id="i"><use transform="matrix(0.06172839506172839,0,0,0.06172839506172839,0,0)" xlink:href="#ad"/><use transform="matrix(0.06172839506172839,0,0,0.06172839506172839,11.11111111111111,0)" xlink:href="#ae"/><use transform="matrix(0.06172839506172839,0,0,0.06172839506172839,23.45679012345679,0)" xlink:href="#ac"/><use transform="matrix(0.06172839506172839,0,0,0.06172839506172839,41.91358024691358,0)" xlink:href="#ac"/><use transform="matrix(0.06172839506172839,0,0,0.06172839506172839,60.37037037037037,0)" xlink:href="#Y"/><use transform="matrix(0.06172839506172839,0,0,0.06172839506172839,72.71604938271605,0)" xlink:href="#af"/><use transform="matrix(0.06172839506172839,0,0,0.06172839506172839,85.06172839506173,0)" xlink:href="#N"/></g><path fill="#b8f5ed" d="M115-194c55 1 70 41 70 98S169 2 115 4C84 4 66-9 55-30l1 105H24l-1-265h31l2 30c10-21 28-34 59-34zm-8 174c40 0 45-34 45-75s-6-73-45-74c-42 0-51 32-51 76 0 43 10 73 51 73" id="ag"/><path fill="#b8f5ed" d="M141-36C126-15 110 5 73 4 37 3 15-17 15-53c-1-64 63-63 125-63 3-35-9-54-41-54-24 1-41 7-42 31l-33-3c5-37 33-52 76-52 45 0 72 20 72 64v82c-1 20 7 32 28 27v20c-31 9-61-2-59-35zM48-53c0 20 12 33 32 33 41-3 63-29 60-74-43 2-92-5-92 41" id="ah"/><path fill="#b8f5ed" d="M114-163C36-179 61-72 57 0H25l-1-190h30c1 12-1 29 2 39 6-27 23-49 58-41v29" id="ai"/><path fill="#b8f5ed" d="M210-169c-67 3-38 105-44 169h-31v-121c0-29-5-50-35-48C34-165 62-65 56 0H25l-1-190h30c1 10-1 24 2 32 10-44 99-50 107 0 11-21 27-35 58-36 85-2 47 119 55 194h-31v-121c0-29-5-49-35-48" id="aj"/><path fill="#b8f5ed" d="M100-194c63 0 86 42 84 106H49c0 40 14 67 53 68 26 1 43-12 49-29l28 8c-11 28-37 45-77 45C44 4 14-33 15-96c1-61 26-98 85-98zm52 81c6-60-76-77-97-28-3 7-6 17-6 28h103" id="ak"/><path fill="#b8f5ed" d="M59-47c-2 24 18 29 38 22v24C64 9 27 4 27-40v-127H5v-23h24l9-43h21v43h35v23H59v120" id="al"/><g id="j"><use transform="matrix(0.06172839506172839,0,0,0.06172839506172839,0,0)" xlink:href="#ag"/><use transform="matrix(0.06172839506172839,0,0,0.06172839506172839,12.345679012345679,0)" xlink:href="#ah"/><use transform="matrix(0.06172839506172839,0,0,0.06172839506172839,24.691358024691358,0)" xlink:href="#ai"/><use transform="matrix(0.06172839506172839,0,0,0.06172839506172839,32.03703703703704,0)" xlink:href="#ah"/><use transform="matrix(0.06172839506172839,0,0,0.06172839506172839,44.382716049382715,0)" xlink:href="#aj"/><use transform="matrix(0.06172839506172839,0,0,0.06172839506172839,62.839506172839506,0)" xlink:href="#ak"/><use transform="matrix(0.06172839506172839,0,0,0.06172839506172839,75.18518518518519,0)" xlink:href="#al"/><use transform="matrix(0.06172839506172839,0,0,0.06172839506172839,81.35802469135803,0)" xlink:href="#ak"/><use transform="matrix(0.06172839506172839,0,0,0.06172839506172839,93.70370370370371,0)" xlink:href="#ai"/></g><path fill="#b8f5ed" d="M89 0H52L20-190h33L74-25l89-165h34" id="am"/><g id="k"><use transform="matrix(0.06172839506172839,0,0,0.06172839506172839,0,0)" xlink:href="#B"/><use transform="matrix(0.06172839506172839,0,0,0.06172839506172839,12.345679012345679,0)" xlink:href="#C"/><use transform="matrix(0.06172839506172839,0,0,0.06172839506172839,18.51851851851852,0)" xlink:href="#D"/><use transform="matrix(0.06172839506172839,0,0,0.06172839506172839,25.864197530864196,0)" xlink:href="#E"/><use transform="matrix(0.06172839506172839,0,0,0.06172839506172839,36.9753086419753,0)" xlink:href="#C"/><use transform="matrix(0.06172839506172839,0,0,0.06172839506172839,43.148148148148145,0)" xlink:href="#F"/><use transform="matrix(0.06118518518518519,0,0,0.06118518518518519,55.49382716049382,0)" xlink:href="#G"/><use transform="matrix(0.06172839506172839,0,0,0.06172839506172839,70.23945679012346,0)" xlink:href="#H"/><use transform="matrix(0.043209876543209874,0,0,0.043209876543209874,76.41229629629629,3.1111111111111107)" xlink:href="#am"/><use transform="matrix(0.06172839506172839,0,0,0.06172839506172839,84.19007407407406,0)" xlink:href="#J"/><use transform="matrix(0.06172839506172839,0,0,0.06172839506172839,97.15303703703702,0)" xlink:href="#B"/><use transform="matrix(0.06172839506172839,0,0,0.06172839506172839,109.49871604938271,0)" xlink:href="#K"/></g><g id="l"><use transform="matrix(0.06172839506172839,0,0,0.06172839506172839,0,0)" xlink:href="#B"/><use transform="matrix(0.06172839506172839,0,0,0.06172839506172839,12.345679012345679,0)" xlink:href="#C"/><use transform="matrix(0.06172839506172839,0,0,0.06172839506172839,18.51851851851852,0)" xlink:href="#D"/><use transform="matrix(0.06172839506172839,0,0,0.06172839506172839,25.864197530864196,0)" xlink:href="#E"/><use transform="matrix(0.06172839506172839,0,0,0.06172839506172839,36.9753086419753,0)" xlink:href="#C"/><use transform="matrix(0.06172839506172839,0,0,0.06172839506172839,43.148148148148145,0)" xlink:href="#F"/><use transform="matrix(0.06118518518518519,0,0,0.06118518518518519,55.49382716049382,0)" xlink:href="#G"/><use transform="matrix(0.06118518518518519,0,0,0.06118518518518519,70.23945679012346,0)" xlink:href="#H"/><use transform="matrix(0.0362962962962963,0,0,0.0362962962962963,76.35797530864197,2.6133333333333333)" xlink:href="#M"/><use transform="matrix(0.06172839506172839,0,0,0.06172839506172839,81.51204938271604,0)" xlink:href="#J"/><use transform="matrix(0.06172839506172839,0,0,0.06172839506172839,94.475012345679,0)" xlink:href="#B"/><use transform="matrix(0.06172839506172839,0,0,0.06172839506172839,106.82069135802469,0)" xlink:href="#K"/></g><path fill="#b8f5ed" d="M55-144c13 50 104 24 104 88C159 21 15 23 1-39l26-10c6 40 102 42 102-4-13-50-104-23-104-87 0-71 143-71 148-8l-29 4c-5-35-85-37-89 0" id="an"/><g id="m"><use transform="matrix(0.06172839506172839,0,0,0.06172839506172839,0,0)" xlink:href="#B"/><use transform="matrix(0.06172839506172839,0,0,0.06172839506172839,12.345679012345679,0)" xlink:href="#C"/><use transform="matrix(0.06172839506172839,0,0,0.06172839506172839,18.51851851851852,0)" xlink:href="#D"/><use transform="matrix(0.06172839506172839,0,0,0.06172839506172839,25.864197530864196,0)" xlink:href="#E"/><use transform="matrix(0.06172839506172839,0,0,0.06172839506172839,36.9753086419753,0)" xlink:href="#C"/><use transform="matrix(0.06172839506172839,0,0,0.06172839506172839,43.148148148148145,0)" xlink:href="#F"/><use transform="matrix(0.06118518518518519,0,0,0.06118518518518519,55.49382716049382,0)" xlink:href="#G"/><use transform="matrix(0.06118518518518519,0,0,0.06118518518518519,70.23945679012346,0)" xlink:href="#H"/><use transform="matrix(0.04282962962962963,0,0,0.04282962962962963,76.35797530864197,3.083733333333333)" xlink:href="#an"/><use transform="matrix(0.06172839506172839,0,0,0.06172839506172839,84.0673086419753,0)" xlink:href="#J"/><use transform="matrix(0.06172839506172839,0,0,0.06172839506172839,97.03027160493826,0)" xlink:href="#B"/><use transform="matrix(0.06172839506172839,0,0,0.06172839506172839,109.37595061728395,0)" xlink:href="#K"/></g><path fill="#fff7a1" d="M84 4C-5 8 30-112 23-190h32v120c0 31 7 50 39 49 72-2 45-101 50-169h31l1 190h-30c-1-10 1-25-2-33-11 22-28 36-60 37" id="ao"/><path fill="#fff7a1" d="M-5 72V49h209v23H-5" id="ap"/><g id="n"><use transform="matrix(0.04938271604938272,0,0,0.04938271604938272,0,0)" xlink:href="#ad"/><use transform="matrix(0.04938271604938272,0,0,0.04938271604938272,8.88888888888889,0)" xlink:href="#ao"/><use transform="matrix(0.04938271604938272,0,0,0.04938271604938272,18.765432098765434,0)" xlink:href="#W"/><use transform="matrix(0.04938271604938272,0,0,0.04938271604938272,24.641975308641978,0)" xlink:href="#W"/><use transform="matrix(0.04938271604938272,0,0,0.04938271604938272,30.518518518518523,0)" xlink:href="#X"/><use transform="matrix(0.04938271604938272,0,0,0.04938271604938272,40.39506172839506,0)" xlink:href="#af"/><use transform="matrix(0.04938271604938272,0,0,0.04938271604938272,50.27160493827161,0)" xlink:href="#aa"/><use transform="matrix(0.04938271604938272,0,0,0.04938271604938272,55.20987654320988,0)" xlink:href="#ap"/><use transform="matrix(0.04938271604938272,0,0,0.04938271604938272,65.08641975308643,0)" xlink:href="#N"/><use transform="matrix(0.04938271604938272,0,0,0.04938271604938272,74.96296296296298,0)" xlink:href="#X"/><use transform="matrix(0.04938271604938272,0,0,0.04938271604938272,84.83950617283952,0)" xlink:href="#P"/><use transform="matrix(0.04938271604938272,0,0,0.04938271604938272,93.7283950617284,0)" xlink:href="#ab"/><use transform="matrix(0.04938271604938272,0,0,0.04938271604938272,97.62962962962965,0)" xlink:href="#W"/><use transform="matrix(0.04938271604938272,0,0,0.04938271604938272,103.50617283950618,0)" xlink:href="#X"/><use transform="matrix(0.04938271604938272,0,0,0.04938271604938272,113.38271604938272,0)" xlink:href="#N"/></g><path fill="#fff7a1" d="M108 0H70L1-190h34L89-25l56-165h34" id="aq"/><path fill="#fff7a1" d="M179-190L93 31C79 59 56 82 12 73V49c39 6 53-20 64-50L1-190h34L92-34l54-156h33" id="ar"/><g id="o"><use transform="matrix(0.04938271604938272,0,0,0.04938271604938272,0,0)" xlink:href="#aq"/><use transform="matrix(0.04938271604938272,0,0,0.04938271604938272,8.88888888888889,0)" xlink:href="#X"/><use transform="matrix(0.04938271604938272,0,0,0.04938271604938272,18.765432098765434,0)" xlink:href="#Z"/><use transform="matrix(0.04938271604938272,0,0,0.04938271604938272,22.666666666666668,0)" xlink:href="#ae"/><use transform="matrix(0.04938271604938272,0,0,0.04938271604938272,32.543209876543216,0)" xlink:href="#ad"/><use transform="matrix(0.04938271604938272,0,0,0.04938271604938272,41.4320987654321,0)" xlink:href="#ab"/><use transform="matrix(0.04938271604938272,0,0,0.04938271604938272,45.333333333333336,0)" xlink:href="#aa"/><use transform="matrix(0.04938271604938272,0,0,0.04938271604938272,50.27160493827161,0)" xlink:href="#ar"/><use transform="matrix(0.04938271604938272,0,0,0.04938271604938272,59.1604938271605,0)" xlink:href="#ap"/><use transform="matrix(0.04938271604938272,0,0,0.04938271604938272,69.03703703703704,0)" xlink:href="#N"/><use transform="matrix(0.04938271604938272,0,0,0.04938271604938272,78.91358024691358,0)" xlink:href="#X"/><use transform="matrix(0.04938271604938272,0,0,0.04938271604938272,88.79012345679013,0)" xlink:href="#P"/><use transform="matrix(0.04938271604938272,0,0,0.04938271604938272,97.67901234567901,0)" xlink:href="#ab"/><use transform="matrix(0.04938271604938272,0,0,0.04938271604938272,101.58024691358025,0)" xlink:href="#W"/><use transform="matrix(0.04938271604938272,0,0,0.04938271604938272,107.4567901234568,0)" xlink:href="#X"/><use transform="matrix(0.04938271604938272,0,0,0.04938271604938272,117.33333333333334,0)" xlink:href="#N"/></g><path fill="#fff7a1" d="M145-31C134-9 116 4 85 4 32 4 16-35 15-94c0-59 17-99 70-100 32-1 48 14 60 33 0-11-1-24 2-32h30l-1 268h-32zM93-21c41 0 51-33 51-76s-8-73-50-73c-40 0-46 35-46 75s5 74 45 74" id="as"/><g id="p"><use transform="matrix(0.04938271604938272,0,0,0.04938271604938272,0,0)" xlink:href="#aa"/><use transform="matrix(0.04938271604938272,0,0,0.04938271604938272,4.938271604938272,0)" xlink:href="#ae"/><use transform="matrix(0.04938271604938272,0,0,0.04938271604938272,14.814814814814817,0)" xlink:href="#W"/><use transform="matrix(0.04938271604938272,0,0,0.04938271604938272,20.69135802469136,0)" xlink:href="#as"/><use transform="matrix(0.04938271604938272,0,0,0.04938271604938272,30.567901234567906,0)" xlink:href="#ao"/><use transform="matrix(0.04938271604938272,0,0,0.04938271604938272,40.44444444444445,0)" xlink:href="#X"/><use transform="matrix(0.04938271604938272,0,0,0.04938271604938272,50.320987654320994,0)" xlink:href="#ap"/><use transform="matrix(0.04938271604938272,0,0,0.04938271604938272,60.19753086419754,0)" xlink:href="#N"/><use transform="matrix(0.04938271604938272,0,0,0.04938271604938272,70.07407407407408,0)" xlink:href="#ae"/><use transform="matrix(0.04938271604938272,0,0,0.04938271604938272,79.95061728395062,0)" xlink:href="#aa"/><use transform="matrix(0.04938271604938272,0,0,0.04938271604938272,84.88888888888889,0)" xlink:href="#ap"/><use transform="matrix(0.04938271604938272,0,0,0.04938271604938272,94.76543209876543,0)" xlink:href="#N"/><use transform="matrix(0.04938271604938272,0,0,0.04938271604938272,104.64197530864199,0)" xlink:href="#X"/><use transform="matrix(0.04938271604938272,0,0,0.04938271604938272,114.51851851851853,0)" xlink:href="#P"/><use transform="matrix(0.04938271604938272,0,0,0.04938271604938272,123.40740740740739,0)" xlink:href="#ab"/><use transform="matrix(0.04938271604938272,0,0,0.04938271604938272,127.30864197530865,0)" xlink:href="#W"/><use transform="matrix(0.04938271604938272,0,0,0.04938271604938272,133.1851851851852,0)" xlink:href="#X"/><use transform="matrix(0.04938271604938272,0,0,0.04938271604938272,143.06172839506172,0)" xlink:href="#N"/></g><g id="q"><use transform="matrix(0.04938271604938272,0,0,0.04938271604938272,0,0)" xlink:href="#aa"/><use transform="matrix(0.04938271604938272,0,0,0.04938271604938272,4.938271604938272,0)" xlink:href="#ae"/><use transform="matrix(0.04938271604938272,0,0,0.04938271604938272,14.814814814814817,0)" xlink:href="#W"/><use transform="matrix(0.04938271604938272,0,0,0.04938271604938272,20.69135802469136,0)" xlink:href="#as"/><use transform="matrix(0.04938271604938272,0,0,0.04938271604938272,30.567901234567906,0)" xlink:href="#ao"/><use transform="matrix(0.04938271604938272,0,0,0.04938271604938272,40.44444444444445,0)" xlink:href="#X"/><use transform="matrix(0.04938271604938272,0,0,0.04938271604938272,50.320987654320994,0)" xlink:href="#ap"/><use transform="matrix(0.04938271604938272,0,0,0.04938271604938272,60.19753086419754,0)" xlink:href="#N"/><use transform="matrix(0.04938271604938272,0,0,0.04938271604938272,70.07407407407408,0)" xlink:href="#X"/><use transform="matrix(0.04938271604938272,0,0,0.04938271604938272,79.95061728395062,0)" xlink:href="#P"/><use transform="matrix(0.04938271604938272,0,0,0.04938271604938272,88.8395061728395,0)" xlink:href="#ab"/><use transform="matrix(0.04938271604938272,0,0,0.04938271604938272,92.74074074074075,0)" xlink:href="#W"/><use transform="matrix(0.04938271604938272,0,0,0.04938271604938272,98.61728395061729,0)" xlink:href="#X"/><use transform="matrix(0.04938271604938272,0,0,0.04938271604938272,108.49382716049384,0)" xlink:href="#N"/></g><g id="r"><use transform="matrix(0.04938271604938272,0,0,0.04938271604938272,0,0)" xlink:href="#A"/><use transform="matrix(0.04938271604938272,0,0,0.04938271604938272,9.876543209876544,0)" xlink:href="#ae"/><use transform="matrix(0.04938271604938272,0,0,0.04938271604938272,19.75308641975309,0)" xlink:href="#P"/><use transform="matrix(0.04938271604938272,0,0,0.04938271604938272,28.641975308641978,0)" xlink:href="#ab"/><use transform="matrix(0.04938271604938272,0,0,0.04938271604938272,32.543209876543216,0)" xlink:href="#aa"/><use transform="matrix(0.04938271604938272,0,0,0.04938271604938272,37.48148148148149,0)" xlink:href="#ab"/><use transform="matrix(0.04938271604938272,0,0,0.04938271604938272,41.38271604938272,0)" xlink:href="#ae"/><use transform="matrix(0.04938271604938272,0,0,0.04938271604938272,51.25925925925927,0)" xlink:href="#af"/><use transform="matrix(0.04938271604938272,0,0,0.04938271604938272,61.13580246913581,0)" xlink:href="#ap"/><use transform="matrix(0.04938271604938272,0,0,0.04938271604938272,71.01234567901236,0)" xlink:href="#N"/><use transform="matrix(0.04938271604938272,0,0,0.04938271604938272,80.8888888888889,0)" xlink:href="#X"/><use transform="matrix(0.04938271604938272,0,0,0.04938271604938272,90.76543209876544,0)" xlink:href="#P"/><use transform="matrix(0.04938271604938272,0,0,0.04938271604938272,99.65432098765433,0)" xlink:href="#ab"/><use transform="matrix(0.04938271604938272,0,0,0.04938271604938272,103.55555555555557,0)" xlink:href="#W"/><use transform="matrix(0.04938271604938272,0,0,0.04938271604938272,109.4320987654321,0)" xlink:href="#X"/><use transform="matrix(0.04938271604938272,0,0,0.04938271604938272,119.30864197530865,0)" xlink:href="#N"/></g><path fill="#fff" d="M185-189c-5-48-123-54-124 2 14 75 158 14 163 119 3 78-121 87-175 55-17-10-28-26-33-46l33-7c5 56 141 63 141-1 0-78-155-14-162-118-5-82 145-84 179-34 5 7 8 16 11 25" id="at"/><path fill="#fff" d="M179-190L93 31C79 59 56 82 12 73V49c39 6 53-20 64-50L1-190h34L92-34l54-156h33" id="au"/><path fill="#fff" d="M59-47c-2 24 18 29 38 22v24C64 9 27 4 27-40v-127H5v-23h24l9-43h21v43h35v23H59v120" id="av"/><path fill="#fff" d="M210-169c-67 3-38 105-44 169h-31v-121c0-29-5-50-35-48C34-165 62-65 56 0H25l-1-190h30c1 10-1 24 2 32 10-44 99-50 107 0 11-21 27-35 58-36 85-2 47 119 55 194h-31v-121c0-29-5-49-35-48" id="aw"/><g id="s"><use transform="matrix(0.06172839506172839,0,0,0.06172839506172839,0,0)" xlink:href="#at"/><use transform="matrix(0.06172839506172839,0,0,0.06172839506172839,14.814814814814813,0)" xlink:href="#au"/><use transform="matrix(0.06172839506172839,0,0,0.06172839506172839,25.925925925925924,0)" xlink:href="#E"/><use transform="matrix(0.06172839506172839,0,0,0.06172839506172839,37.03703703703704,0)" xlink:href="#av"/><use transform="matrix(0.06172839506172839,0,0,0.06172839506172839,43.20987654320988,0)" xlink:href="#R"/><use transform="matrix(0.06172839506172839,0,0,0.06172839506172839,55.55555555555556,0)" xlink:href="#aw"/></g><path fill="#fff" d="M100-194c62-1 85 37 85 99 1 63-27 99-86 99S16-35 15-95c0-66 28-99 85-99zM99-20c44 1 53-31 53-75 0-43-8-75-51-75s-53 32-53 75 10 74 51 75" id="ax"/><path fill="#fff" d="M84 4C-5 8 30-112 23-190h32v120c0 31 7 50 39 49 72-2 45-101 50-169h31l1 190h-30c-1-10 1-25-2-33-11 22-28 36-60 37" id="ay"/><path fill="#fff" d="M115-194c55 1 70 41 70 98S169 2 115 4C84 4 66-9 55-30l1 105H24l-1-265h31l2 30c10-21 28-34 59-34zm-8 174c40 0 45-34 45-75s-6-73-45-74c-42 0-51 32-51 76 0 43 10 73 51 73" id="az"/><path fill="#fff" d="M-5 72V49h209v23H-5" id="aA"/><path fill="#fff" d="M114-163C36-179 61-72 57 0H25l-1-190h30c1 12-1 29 2 39 6-27 23-49 58-41v29" id="aB"/><path fill="#fff" d="M145-31C134-9 116 4 85 4 32 4 16-35 15-94c0-59 17-99 70-100 32-1 48 14 60 33 0-11-1-24 2-32h30l-1 268h-32zM93-21c41 0 51-33 51-76s-8-73-50-73c-40 0-46 35-46 75s5 74 45 74" id="aC"/><path fill="#fff" d="M141-36C126-15 110 5 73 4 37 3 15-17 15-53c-1-64 63-63 125-63 3-35-9-54-41-54-24 1-41 7-42 31l-33-3c5-37 33-52 76-52 45 0 72 20 72 64v82c-1 20 7 32 28 27v20c-31 9-61-2-59-35zM48-53c0 20 12 33 32 33 41-3 63-29 60-74-43 2-92-5-92 41" id="aD"/><g id="t"><use transform="matrix(0.04938271604938272,0,0,0.04938271604938272,0,0)" xlink:href="#ax"/><use transform="matrix(0.04938271604938272,0,0,0.04938271604938272,9.876543209876544,0)" xlink:href="#ay"/><use transform="matrix(0.04938271604938272,0,0,0.04938271604938272,19.75308641975309,0)" xlink:href="#av"/><use transform="matrix(0.04938271604938272,0,0,0.04938271604938272,24.69135802469136,0)" xlink:href="#az"/><use transform="matrix(0.04938271604938272,0,0,0.04938271604938272,34.567901234567906,0)" xlink:href="#ay"/><use transform="matrix(0.04938271604938272,0,0,0.04938271604938272,44.44444444444445,0)" xlink:href="#av"/><use transform="matrix(0.04938271604938272,0,0,0.04938271604938272,49.38271604938272,0)" xlink:href="#aA"/><use transform="matrix(0.04938271604938272,0,0,0.04938271604938272,59.25925925925927,0)" xlink:href="#av"/><use transform="matrix(0.04938271604938272,0,0,0.04938271604938272,64.19753086419755,0)" xlink:href="#ax"/><use transform="matrix(0.04938271604938272,0,0,0.04938271604938272,74.07407407407409,0)" xlink:href="#aB"/><use transform="matrix(0.04938271604938272,0,0,0.04938271604938272,79.95061728395063,0)" xlink:href="#aC"/><use transform="matrix(0.04938271604938272,0,0,0.04938271604938272,89.82716049382718,0)" xlink:href="#ay"/><use transform="matrix(0.04938271604938272,0,0,0.04938271604938272,99.70370370370372,0)" xlink:href="#R"/><use transform="matrix(0.04938271604938272,0,0,0.04938271604938272,109.58024691358028,0)" xlink:href="#aA"/><use transform="matrix(0.04938271604938272,0,0,0.04938271604938272,119.45679012345683,0)" xlink:href="#aw"/><use transform="matrix(0.04938271604938272,0,0,0.04938271604938272,134.22222222222226,0)" xlink:href="#R"/><use transform="matrix(0.04938271604938272,0,0,0.04938271604938272,144.0987654320988,0)" xlink:href="#aD"/><use transform="matrix(0.04938271604938272,0,0,0.04938271604938272,153.97530864197535,0)" xlink:href="#E"/><use transform="matrix(0.04938271604938272,0,0,0.04938271604938272,162.86419753086423,0)" xlink:href="#ay"/><use transform="matrix(0.04938271604938272,0,0,0.04938271604938272,172.74074074074076,0)" xlink:href="#aB"/><use transform="matrix(0.04938271604938272,0,0,0.04938271604938272,178.6172839506173,0)" xlink:href="#R"/><use transform="matrix(0.04938271604938272,0,0,0.04938271604938272,188.49382716049382,0)" xlink:href="#U"/></g><path fill="#fff" d="M16-82v-28h88v28H16" id="aE"/><path fill="#fff" d="M-8 0l5-24 140-142H31l5-24h145l-5 24L36-24h119l-5 24H-8" id="aF"/><path fill="#fff" d="M127-220V0H93v-220H8v-28h204v28h-85" id="aG"/><g id="u"><use transform="matrix(0.06172839506172839,0,0,0.06172839506172839,0,0)" xlink:href="#D"/><use transform="matrix(0.06172839506172839,0,0,0.06172839506172839,7.345679012345679,0)" xlink:href="#B"/><use transform="matrix(0.06172839506172839,0,0,0.06172839506172839,19.691358024691358,0)" xlink:href="#aE"/><use transform="matrix(0.06172839506172839,0,0,0.06172839506172839,27.037037037037038,0)" xlink:href="#aF"/><use transform="matrix(0.043209876543209874,0,0,0.043209876543209874,38.14814814814815,-6.222222222222221)" xlink:href="#aE"/><use transform="matrix(0.043209876543209874,0,0,0.043209876543209874,43.29012345679013,-6.222222222222221)" xlink:href="#B"/><use transform="matrix(0.06172839506172839,0,0,0.06172839506172839,51.9320987654321,0)" xlink:href="#K"/><use transform="matrix(0.06172839506172839,0,0,0.06172839506172839,59.27777777777778,0)" xlink:href="#C"/><use transform="matrix(0.06172839506172839,0,0,0.06172839506172839,65.45061728395062,0)" xlink:href="#aG"/></g><path fill="#fff" d="M24-231v-30h32v30H24zM24 0v-190h32V0H24" id="aH"/><g id="v"><use transform="matrix(0.04938271604938272,0,0,0.04938271604938272,0,0)" xlink:href="#aw"/><use transform="matrix(0.04938271604938272,0,0,0.04938271604938272,14.765432098765434,0)" xlink:href="#ax"/><use transform="matrix(0.04938271604938272,0,0,0.04938271604938272,24.641975308641978,0)" xlink:href="#av"/><use transform="matrix(0.04938271604938272,0,0,0.04938271604938272,29.58024691358025,0)" xlink:href="#ax"/><use transform="matrix(0.04938271604938272,0,0,0.04938271604938272,39.4567901234568,0)" xlink:href="#aB"/><use transform="matrix(0.04938271604938272,0,0,0.04938271604938272,45.33333333333334,0)" xlink:href="#aA"/><use transform="matrix(0.04938271604938272,0,0,0.04938271604938272,55.209876543209894,0)" xlink:href="#az"/><use transform="matrix(0.04938271604938272,0,0,0.04938271604938272,65.08641975308643,0)" xlink:href="#ax"/><use transform="matrix(0.04938271604938272,0,0,0.04938271604938272,74.96296296296298,0)" xlink:href="#E"/><use transform="matrix(0.04938271604938272,0,0,0.04938271604938272,83.85185185185186,0)" xlink:href="#aH"/><use transform="matrix(0.04938271604938272,0,0,0.04938271604938272,87.7530864197531,0)" xlink:href="#av"/><use transform="matrix(0.04938271604938272,0,0,0.04938271604938272,92.69135802469137,0)" xlink:href="#aH"/><use transform="matrix(0.04938271604938272,0,0,0.04938271604938272,96.59259259259261,0)" xlink:href="#ax"/><use transform="matrix(0.04938271604938272,0,0,0.04938271604938272,106.46913580246914,0)" xlink:href="#T"/><use transform="matrix(0.04938271604938272,0,0,0.04938271604938272,116.34567901234568,0)" xlink:href="#aA"/><use transform="matrix(0.04938271604938272,0,0,0.04938271604938272,126.22222222222223,0)" xlink:href="#aw"/><use transform="matrix(0.04938271604938272,0,0,0.04938271604938272,140.98765432098767,0)" xlink:href="#R"/><use transform="matrix(0.04938271604938272,0,0,0.04938271604938272,150.8641975308642,0)" xlink:href="#aD"/><use transform="matrix(0.04938271604938272,0,0,0.04938271604938272,160.74074074074076,0)" xlink:href="#E"/><use transform="matrix(0.04938271604938272,0,0,0.04938271604938272,169.62962962962965,0)" xlink:href="#ay"/><use transform="matrix(0.04938271604938272,0,0,0.04938271604938272,179.50617283950618,0)" xlink:href="#aB"/><use transform="matrix(0.04938271604938272,0,0,0.04938271604938272,185.3827160493827,0)" xlink:href="#R"/><use transform="matrix(0.04938271604938272,0,0,0.04938271604938272,195.25925925925924,0)" xlink:href="#U"/></g><path fill="#b8f5ed" d="M96-169c-40 0-48 33-48 73s9 75 48 75c24 0 41-14 43-38l32 2c-6 37-31 61-74 61-59 0-76-41-82-99-10-93 101-131 147-64 4 7 5 14 7 22l-32 3c-4-21-16-35-41-35" id="aI"/><path fill="#b8f5ed" d="M100-194c62-1 85 37 85 99 1 63-27 99-86 99S16-35 15-95c0-66 28-99 85-99zM99-20c44 1 53-31 53-75 0-43-8-75-51-75s-53 32-53 75 10 74 51 75" id="aJ"/><path fill="#b8f5ed" d="M117-194c89-4 53 116 60 194h-32v-121c0-31-8-49-39-48C34-167 62-67 57 0H25l-1-190h30c1 10-1 24 2 32 11-22 29-35 61-36" id="aK"/><path fill="#b8f5ed" d="M85-194c31 0 48 13 60 33l-1-100h32l1 261h-30c-2-10 0-23-3-31C134-8 116 4 85 4 32 4 16-35 15-94c0-66 23-100 70-100zm9 24c-40 0-46 34-46 75 0 40 6 74 45 74 42 0 51-32 51-76 0-42-9-74-50-73" id="aL"/><path fill="#b8f5ed" d="M-5 72V49h209v23H-5" id="aM"/><path fill="#b8f5ed" d="M141 0L90-78 38 0H4l68-98-65-92h35l48 74 47-74h35l-64 92 68 98h-35" id="aN"/><g id="w"><use transform="matrix(0.049382716049382706,0,0,0.049382716049382706,0,0)" xlink:href="#aI"/><use transform="matrix(0.049382716049382706,0,0,0.049382716049382706,8.888888888888888,0)" xlink:href="#aJ"/><use transform="matrix(0.049382716049382706,0,0,0.049382716049382706,18.76543209876543,0)" xlink:href="#aj"/><use transform="matrix(0.049382716049382706,0,0,0.049382716049382706,33.53086419753086,0)" xlink:href="#aj"/><use transform="matrix(0.049382716049382706,0,0,0.049382716049382706,48.29629629629629,0)" xlink:href="#ah"/><use transform="matrix(0.049382716049382706,0,0,0.049382716049382706,58.17283950617284,0)" xlink:href="#aK"/><use transform="matrix(0.049382716049382706,0,0,0.049382716049382706,68.04938271604938,0)" xlink:href="#aL"/><use transform="matrix(0.049382716049382706,0,0,0.049382716049382706,77.92592592592592,0)" xlink:href="#aM"/><use transform="matrix(0.049382716049382706,0,0,0.049382716049382706,87.80246913580247,0)" xlink:href="#aj"/><use transform="matrix(0.049382716049382706,0,0,0.049382716049382706,102.5679012345679,0)" xlink:href="#ah"/><use transform="matrix(0.049382716049382706,0,0,0.049382716049382706,112.44444444444444,0)" xlink:href="#aN"/></g><use transform="matrix(0.06172839506172839,0,0,0.06172839506172839,0,0)" xlink:href="#J" id="x"/><use transform="matrix(0.06172839506172839,0,0,0.06172839506172839,0,0)" xlink:href="#aE" id="y"/></defs></g></svg>